<?xml version="1.0" encoding="UTF-8" standalone="no" ?>
<!DOCTYPE svg PUBLIC "-//W3C//DTD SVG 1.1//EN" "http://www.w3.org/Graphics/SVG/1.1/DTD/svg11.dtd">
<svg xmlns="http://www.w3.org/2000/svg" xmlns:xlink="http://www.w3.org/1999/xlink" version="1.1" width="1080" height="1080" viewBox="0 0 1080 1080" xml:space="preserve">
<desc>Created with Fabric.js 5.2.4</desc>
<defs>
</defs>
<g transform="matrix(1 0 0 1 540 540)" id="4dc5cae2-fad5-4074-b987-30fc97d82029"  >
<rect style="stroke: none; stroke-width: 1; stroke-dasharray: none; stroke-linecap: butt; stroke-dashoffset: 0; stroke-linejoin: miter; stroke-miterlimit: 4; fill: rgb(255,255,255); fill-rule: nonzero; opacity: 1; visibility: hidden;" vector-effect="non-scaling-stroke"  x="-540" y="-540" rx="0" ry="0" width="1080" height="1080" />
</g>
<g transform="matrix(1 0 0 1 540 540)" id="c127490f-0610-4ec7-bb56-bc2d19e23f4f"  >
</g>
<g transform="matrix(1 0 0 1 540 540)"  >
<g style="" vector-effect="non-scaling-stroke"   >
		<g transform="matrix(0.13 0 0 -0.13 -124.09 -483.39)"  >
<path style="stroke: none; stroke-width: 1; stroke-dasharray: none; stroke-linecap: butt; stroke-dashoffset: 0; stroke-linejoin: miter; stroke-miterlimit: 4; fill: rgb(139,195,75); fill-rule: nonzero; opacity: 1;" vector-effect="non-scaling-stroke"  transform=" translate(-4120.99, -8727.36)" d="M 3672 9059 C 3593 9020 3554 8926 3580 8844 C 3603 8771 3661 8730 3739 8730 C 3794 8730 3829 8745 3872 8787 L 3908 8823 L 3981 8805 C 4122 8770 4266 8684 4397 8557 L 4460 8496 L 4424 8467 C 4397 8445 4390 8431 4392 8411 C 4395 8387 4400 8385 4455 8379 C 4519 8372 4534 8376 4575 8414 C 4589 8427 4616 8446 4635 8455 C 4655 8464 4670 8478 4670 8488 C 4670 8514 4641 8550 4621 8550 C 4609 8550 4589 8573 4564 8616 C 4459 8796 4192 8959 3975 8977 C 3912 8982 3902 8986 3878 9015 C 3823 9080 3748 9096 3672 9059 z" stroke-linecap="round" />
</g>
		<g transform="matrix(0.13 0 0 -0.13 127.52 -483.74)"  >
<path style="stroke: none; stroke-width: 1; stroke-dasharray: none; stroke-linecap: butt; stroke-dashoffset: 0; stroke-linejoin: miter; stroke-miterlimit: 4; fill: rgb(139,195,75); fill-rule: nonzero; opacity: 1;" vector-effect="non-scaling-stroke"  transform=" translate(-6008.06, -8730)" d="M 6344 9061 C 6322 9051 6293 9029 6279 9013 C 6257 8986 6247 8983 6157 8972 C 5933 8945 5709 8808 5590 8625 C 5549 8562 5546 8560 5506 8560 C 5456 8560 5440 8547 5440 8504 C 5440 8477 5445 8470 5470 8462 C 5486 8456 5527 8435 5560 8416 C 5613 8385 5630 8380 5686 8380 C 5763 8380 5768 8392 5718 8459 L 5687 8502 L 5741 8554 C 5864 8672 5983 8746 6124 8789 C 6220 8819 6245 8817 6291 8776 C 6356 8716 6422 8711 6500 8757 C 6591 8810 6603 8950 6522 9021 C 6484 9055 6432 9080 6403 9080 C 6393 9080 6367 9071 6344 9061 z" stroke-linecap="round" />
</g>
		<g transform="matrix(0.13 0 0 -0.13 -29.55 -483.99)"  >
<path style="stroke: none; stroke-width: 1; stroke-dasharray: none; stroke-linecap: butt; stroke-dashoffset: 0; stroke-linejoin: miter; stroke-miterlimit: 4; fill: rgb(139,195,75); fill-rule: nonzero; opacity: 1;" vector-effect="non-scaling-stroke"  transform=" translate(-4830.04, -8731.85)" d="M 4696 8925 C 4656 8888 4661 8854 4720 8785 C 4768 8728 4787 8685 4820 8557 C 4831 8515 4836 8509 4854 8514 C 4866 8517 4901 8520 4933 8520 C 4989 8520 4990 8521 4990 8548 C 4990 8599 4951 8733 4915 8806 C 4851 8938 4762 8986 4696 8925 z" stroke-linecap="round" />
</g>
		<g transform="matrix(0.13 0 0 -0.13 33.78 -483.53)"  >
<path style="stroke: none; stroke-width: 1; stroke-dasharray: none; stroke-linecap: butt; stroke-dashoffset: 0; stroke-linejoin: miter; stroke-miterlimit: 4; fill: rgb(139,195,75); fill-rule: nonzero; opacity: 1;" vector-effect="non-scaling-stroke"  transform=" translate(-5304.99, -8728.43)" d="M 5335 8931 C 5262 8898 5205 8812 5166 8676 C 5152 8628 5140 8573 5140 8554 C 5140 8521 5141 8520 5184 8520 C 5208 8520 5241 8517 5258 8514 C 5287 8508 5289 8510 5300 8551 C 5327 8659 5360 8725 5415 8782 C 5479 8847 5485 8877 5444 8915 C 5429 8929 5414 8940 5409 8940 C 5405 8940 5396 8942 5388 8945 C 5381 8947 5357 8941 5335 8931 z" stroke-linecap="round" />
</g>
		<g transform="matrix(0.13 0 0 -0.13 -315.21 -374.34)"  >
<path style="stroke: none; stroke-width: 1; stroke-dasharray: none; stroke-linecap: butt; stroke-dashoffset: 0; stroke-linejoin: miter; stroke-miterlimit: 4; fill: rgb(139,195,75); fill-rule: nonzero; opacity: 1;" vector-effect="non-scaling-stroke"  transform=" translate(-2687.55, -7909.5)" d="M 2043 8760 C 2004 8737 1990 8712 1990 8666 C 1990 8622 2010 8600 2088 8561 C 2219 8495 2344 8376 2452 8215 C 2531 8096 2708 7755 2696 7743 C 2693 7739 2634 7748 2566 7763 C 2498 7777 2433 7786 2421 7783 C 2397 7777 2370 7733 2370 7701 C 2370 7674 2401 7655 2480 7635 C 2516 7626 2583 7607 2629 7594 C 2675 7581 2725 7570 2740 7570 C 2755 7570 2772 7564 2777 7558 C 2798 7531 2869 7365 2862 7358 C 2858 7355 2786 7363 2702 7377 C 2524 7406 2505 7403 2494 7345 C 2489 7315 2491 7304 2508 7288 C 2532 7264 2651 7228 2799 7200 C 2972 7167 2961 7172 2996 7101 L 3028 7039 L 3080 7114 C 3138 7198 3196 7251 3264 7280 L 3309 7299 L 3294 7336 C 3282 7365 3280 7390 3285 7438 C 3294 7527 3334 7687 3365 7761 C 3389 7817 3390 7824 3376 7845 C 3356 7875 3293 7895 3271 7877 C 3243 7854 3201 7743 3177 7626 C 3163 7561 3150 7506 3147 7504 C 3145 7501 3126 7530 3107 7567 C 3088 7604 3065 7649 3056 7665 C 3022 7729 3040 7876 3106 8073 L 3142 8181 L 3120 8205 C 3108 8218 3084 8232 3068 8235 C 3011 8248 2975 8190 2928 8012 C 2912 7948 2897 7894 2895 7892 C 2894 7891 2870 7927 2843 7972 C 2816 8018 2765 8099 2731 8153 C 2649 8282 2643 8301 2668 8342 C 2704 8402 2671 8417 2586 8380 L 2540 8361 L 2540 8383 C 2540 8431 2424 8576 2332 8644 C 2251 8703 2118 8780 2096 8780 C 2084 8780 2061 8771 2043 8760 z" stroke-linecap="round" />
</g>
		<g transform="matrix(0.13 0 0 -0.13 318.2 -375.02)"  >
<path style="stroke: none; stroke-width: 1; stroke-dasharray: none; stroke-linecap: butt; stroke-dashoffset: 0; stroke-linejoin: miter; stroke-miterlimit: 4; fill: rgb(139,195,75); fill-rule: nonzero; opacity: 1;" vector-effect="non-scaling-stroke"  transform=" translate(-7438.13, -7914.58)" d="M 7915 8725 C 7760 8618 7607 8466 7595 8408 C 7588 8376 7585 8376 7509 8395 C 7496 8398 7477 8395 7468 8388 C 7451 8376 7451 8373 7466 8345 C 7474 8329 7480 8306 7478 8295 C 7475 8284 7418 8190 7349 8087 L 7225 7899 L 7209 7982 C 7166 8214 7105 8286 7023 8204 C 6996 8177 6996 8178 7030 8085 C 7061 8001 7080 7880 7080 7775 L 7080 7685 L 7028 7598 C 7000 7549 6974 7513 6971 7516 C 6968 7519 6956 7573 6943 7637 C 6918 7766 6874 7874 6842 7882 C 6815 7889 6760 7862 6748 7835 C 6741 7820 6744 7801 6758 7765 C 6793 7675 6814 7552 6814 7424 L 6815 7302 L 6850 7290 C 6922 7264 6999 7201 7052 7124 C 7081 7083 7108 7050 7112 7050 C 7116 7050 7133 7079 7149 7115 C 7169 7158 7185 7180 7196 7180 C 7205 7180 7294 7198 7394 7220 C 7589 7264 7610 7274 7610 7331 C 7610 7358 7580 7400 7561 7400 C 7556 7400 7499 7391 7435 7380 C 7371 7369 7303 7360 7284 7360 L 7250 7360 L 7300 7460 C 7328 7516 7356 7562 7363 7564 C 7370 7566 7445 7584 7530 7605 C 7713 7649 7745 7661 7760 7689 C 7775 7717 7754 7760 7718 7778 C 7694 7789 7673 7787 7566 7765 C 7424 7736 7430 7737 7430 7751 C 7430 7780 7624 8153 7674 8220 C 7705 8261 7744 8314 7762 8338 C 7811 8402 7961 8525 8040 8565 C 8131 8611 8151 8651 8115 8720 C 8075 8797 8021 8799 7915 8725 z" stroke-linecap="round" />
</g>
		<g transform="matrix(0.13 0 0 -0.13 0.44 46.47)"  >
<path style="stroke: none; stroke-width: 1; stroke-dasharray: none; stroke-linecap: butt; stroke-dashoffset: 0; stroke-linejoin: miter; stroke-miterlimit: 4; fill: rgb(139,195,75); fill-rule: nonzero; opacity: 1;" vector-effect="non-scaling-stroke"  transform=" translate(-5054.95, -4753.42)" d="M 4945 8379 C 4822 8368 4633 8299 4680 8282 C 4709 8272 4769 8200 4800 8137 C 4874 7986 4854 7794 4748 7657 C 4657 7538 4578 7474 4473 7434 C 4411 7410 4396 7408 4290 7413 C 4221 7416 4158 7424 4133 7433 L 4091 7449 L 4028 7370 C 3993 7326 3918 7238 3860 7173 C 3802 7108 3744 7041 3730 7023 L 3705 6991 L 3596 7066 C 3536 7107 3468 7157 3444 7177 L 3400 7212 L 3348 7179 C 3279 7137 3241 7101 3169 7012 L 3109 6939 L 3173 6862 C 3227 6796 3424 6631 3464 6617 C 3475 6613 3387 6419 3364 6396 C 3333 6363 3238 6031 3241 5961 C 3242 5941 3235 5867 3226 5795 C 3217 5724 3210 5648 3210 5628 C 3210 5591 3209 5590 3171 5590 C 3150 5590 3095 5597 3049 5606 C 2949 5625 2790 5621 2745 5599 C 2686 5571 2702 5468 2791 5310 C 2856 5195 2867 5180 2893 5180 C 2905 5180 2958 5168 3010 5154 C 3062 5139 3134 5119 3170 5110 C 3225 5095 3235 5089 3238 5069 C 3247 4987 3272 4819 3280 4785 C 3285 4763 3290 4731 3290 4714 C 3290 4679 3287 4677 3120 4618 C 2967 4564 2869 4503 2815 4430 C 2761 4357 2769 4292 2840 4232 C 2877 4200 3023 4138 3084 4127 L 3151 4116 L 3254 4167 C 3311 4196 3374 4233 3394 4250 L 3429 4281 L 3448 4243 C 3459 4222 3484 4160 3505 4105 C 3606 3835 3722 3612 3849 3444 C 3935 3330 4092 3167 4179 3101 C 4268 3034 4267 3035 4220 2910 C 4179 2802 4163 2728 4154 2614 C 4148 2531 4149 2521 4167 2503 C 4187 2483 4263 2465 4280 2475 C 4285 2478 4295 2500 4301 2523 C 4345 2681 4378 2776 4416 2853 L 4460 2940 L 4497 2925 C 4517 2916 4536 2907 4539 2904 C 4542 2901 4543 2867 4541 2829 C 4537 2724 4544 2702 4586 2694 C 4625 2687 4644 2663 4655 2610 C 4675 2511 4756 2193 4804 2025 C 4834 1921 4877 1763 4900 1675 C 4980 1371 5049 1148 5071 1126 C 5082 1114 5096 1151 5135 1300 C 5192 1520 5320 1970 5370 2125 C 5396 2208 5434 2349 5454 2440 C 5535 2801 5533 2795 5563 2795 C 5587 2794 5592 2800 5600 2835 C 5625 2936 5630 2947 5656 2959 C 5671 2965 5684 2969 5685 2968 C 5687 2966 5704 2936 5723 2900 C 5767 2820 5806 2686 5822 2560 C 5836 2455 5841 2450 5916 2465 C 5973 2475 5980 2490 5980 2599 C 5980 2726 5939 2891 5886 2977 C 5865 3011 5852 3043 5855 3052 C 5858 3060 5896 3092 5938 3122 C 6045 3199 6260 3423 6354 3555 C 6441 3678 6601 3988 6645 4119 C 6690 4255 6739 4365 6752 4362 C 6782 4354 6791 4336 6785 4301 C 6781 4281 6774 4261 6769 4255 C 6764 4250 6760 4242 6760 4238 C 6760 4223 6979 4120 7011 4120 C 7091 4120 7252 4183 7324 4242 C 7365 4276 7379 4324 7360 4371 C 7353 4387 7318 4428 7281 4462 C 7217 4520 7105 4582 6896 4674 L 6838 4700 L 6843 4742 C 6846 4766 6858 4855 6871 4940 L 6895 5095 L 7005 5123 C 7265 5188 7279 5196 7352 5328 C 7391 5400 7395 5411 7398 5496 C 7402 5583 7401 5588 7379 5604 C 7345 5628 7193 5625 7052 5599 C 6990 5587 6938 5579 6937 5581 C 6934 5584 6895 5881 6885 5970 C 6879 6026 6829 6221 6800 6300 C 6783 6347 6768 6390 6766 6395 C 6759 6417 6719 6507 6704 6535 C 6695 6552 6679 6584 6669 6607 L 6651 6649 L 6688 6667 C 6763 6705 6858 6775 6945 6860 L 7035 6947 L 6992 7001 C 6914 7099 6883 7128 6809 7169 C 6768 7191 6729 7210 6722 7210 C 6714 7210 6690 7195 6667 7176 C 6644 7158 6579 7111 6523 7072 L 6421 7001 L 6379 7058 C 6355 7089 6288 7168 6230 7233 C 6172 7298 6109 7371 6090 7396 C 6050 7446 6056 7446 5892 7414 C 5815 7399 5788 7398 5736 7407 C 5583 7433 5438 7546 5362 7699 C 5261 7900 5284 8077 5431 8234 L 5489 8297 L 5457 8312 C 5346 8365 5121 8394 4945 8379 z M 5285 7489 C 5406 7476 5524 7434 5699 7344 C 5875 7255 5950 7200 6095 7055 C 6432 6720 6629 6336 6715 5850 C 6739 5716 6743 5668 6743 5495 C 6744 5184 6696 4948 6564 4613 C 6511 4477 6497 4431 6480 4319 C 6449 4112 6417 4015 6347 3907 C 6293 3823 6078 3577 5997 3507 C 5814 3347 5495 3187 5274 3144 C 4997 3092 4785 3131 4475 3292 C 4284 3391 4167 3472 4063 3578 C 3996 3645 3768 3915 3735 3965 C 3713 3999 3659 4188 3629 4335 C 3602 4470 3580 4549 3521 4720 C 3428 4991 3394 5236 3403 5584 C 3408 5788 3411 5818 3443 5972 C 3497 6226 3536 6329 3668 6579 C 3769 6770 3862 6892 4026 7050 C 4314 7328 4619 7474 4959 7500 C 5069 7508 5134 7506 5285 7489 z M 2969 5539 C 3012 5524 3009 5498 2958 5464 C 2898 5423 2887 5420 2868 5438 C 2844 5459 2846 5499 2872 5527 C 2896 5552 2921 5556 2969 5539 z M 7257 5535 C 7289 5512 7292 5481 7265 5454 C 7234 5423 7216 5424 7191 5456 C 7141 5520 7191 5581 7257 5535 z M 3096 4495 C 3099 4487 3094 4467 3084 4451 C 3022 4355 2985 4310 2969 4310 C 2947 4310 2920 4347 2920 4378 C 2920 4407 2971 4456 3032 4488 C 3083 4514 3089 4515 3096 4495 z M 7198 4424 C 7239 4392 7242 4348 7205 4324 C 7154 4291 7110 4336 7110 4422 C 7110 4461 7111 4462 7138 4455 C 7153 4452 7180 4437 7198 4424 z" stroke-linecap="round" />
</g>
		<g transform="matrix(0.13 0 0 -0.13 1.17 -266)"  >
<path style="stroke: none; stroke-width: 1; stroke-dasharray: none; stroke-linecap: butt; stroke-dashoffset: 0; stroke-linejoin: miter; stroke-miterlimit: 4; fill: rgb(139,195,75); fill-rule: nonzero; opacity: 1;" vector-effect="non-scaling-stroke"  transform=" translate(-5060.44, -7096.92)" d="M 4955 7344 C 4860 7331 4791 7314 4668 7274 C 4592 7249 4528 7225 4525 7219 C 4521 7214 4535 7176 4555 7135 C 4641 6955 4835 6846 5065 6846 C 5189 6846 5271 6867 5365 6923 C 5464 6981 5523 7040 5567 7125 C 5598 7186 5602 7200 5591 7214 C 5576 7232 5428 7290 5320 7320 C 5247 7341 5032 7355 4955 7344 z" stroke-linecap="round" />
</g>
		<g transform="matrix(0.13 0 0 -0.13 1.71 -205.42)"  >
<path style="stroke: none; stroke-width: 1; stroke-dasharray: none; stroke-linecap: butt; stroke-dashoffset: 0; stroke-linejoin: miter; stroke-miterlimit: 4; fill: rgb(139,195,75); fill-rule: nonzero; opacity: 1;" vector-effect="non-scaling-stroke"  transform=" translate(-5064.51, -6642.63)" d="M 4329 7098 C 4299 7076 4255 7039 4230 7016 C 4205 6993 4170 6962 4151 6947 L 4117 6919 L 4145 6837 C 4180 6734 4222 6650 4258 6608 C 4274 6590 4300 6551 4315 6522 C 4376 6408 4560 6273 4755 6198 C 4864 6156 4866 6156 5020 6152 C 5139 6149 5191 6152 5244 6164 C 5346 6188 5495 6246 5573 6292 C 5650 6339 5830 6494 5830 6516 C 5830 6525 5819 6530 5802 6530 C 5786 6530 5754 6543 5731 6558 C 5679 6593 5510 6778 5510 6800 C 5510 6809 5521 6827 5535 6840 C 5558 6862 5562 6863 5590 6849 C 5622 6834 5850 6596 5850 6578 C 5850 6572 5873 6603 5902 6646 C 5963 6739 6024 6894 6010 6921 C 6005 6930 5961 6969 5913 7007 C 5764 7125 5747 7136 5742 7122 C 5731 7089 5618 6931 5579 6894 C 5485 6805 5317 6722 5184 6699 C 5143 6692 5077 6690 5018 6693 C 4934 6698 4904 6705 4817 6740 C 4761 6763 4697 6793 4675 6807 C 4652 6822 4634 6828 4632 6822 C 4621 6788 4436 6571 4396 6545 C 4365 6525 4324 6534 4303 6566 C 4288 6589 4289 6592 4329 6644 C 4398 6734 4546 6871 4566 6863 C 4575 6860 4555 6890 4520 6931 C 4486 6972 4444 7033 4428 7067 C 4411 7102 4395 7132 4391 7134 C 4387 7137 4359 7120 4329 7098 z M 4835 6666 C 4854 6658 4870 6644 4870 6636 C 4870 6621 4794 6424 4750 6327 C 4731 6285 4725 6279 4707 6284 C 4695 6288 4673 6293 4658 6296 C 4636 6301 4630 6308 4630 6329 C 4631 6386 4765 6680 4791 6680 C 4796 6680 4816 6673 4835 6666 z M 5377 6633 C 5400 6591 5504 6357 5514 6324 C 5520 6305 5516 6302 5469 6296 C 5430 6291 5413 6292 5403 6303 C 5386 6320 5270 6615 5270 6641 C 5270 6661 5283 6668 5326 6669 C 5351 6670 5360 6664 5377 6633 z M 5123 6437 C 5126 6342 5126 6252 5123 6237 C 5118 6212 5115 6210 5064 6210 L 5010 6210 L 5010 6349 C 5010 6425 5013 6515 5016 6549 L 5023 6610 L 5070 6610 L 5117 6610 L 5123 6437 z" stroke-linecap="round" />
</g>
		<g transform="matrix(0.13 0 0 -0.13 2.1 -31.86)"  >
<path style="stroke: none; stroke-width: 1; stroke-dasharray: none; stroke-linecap: butt; stroke-dashoffset: 0; stroke-linejoin: miter; stroke-miterlimit: 4; fill: rgb(139,195,75); fill-rule: nonzero; opacity: 1;" vector-effect="non-scaling-stroke"  transform=" translate(-5067.38, -5340.93)" d="M 3926 6707 C 3666 6352 3550 5983 3549 5500 C 3549 5305 3559 5190 3590 5050 C 3609 4964 3664 4800 3696 4739 C 3781 4571 4054 4279 4220 4175 C 4439 4040 4694 3935 4868 3910 C 4919 3902 5013 3899 5118 3902 C 5265 3907 5299 3911 5405 3939 C 5634 4000 5848 4115 6011 4263 C 6197 4432 6233 4468 6226 4479 C 6222 4485 6201 4490 6180 4490 C 6138 4490 6124 4503 5952 4713 L 5897 4781 L 5927 4811 L 5957 4841 L 6006 4802 C 6082 4742 6193 4618 6226 4555 L 6257 4498 L 6287 4537 C 6439 4732 6514 4906 6567 5190 C 6592 5327 6592 5717 6567 5845 C 6538 5990 6490 6168 6454 6263 C 6408 6384 6299 6582 6219 6691 L 6152 6781 L 6132 6748 C 6108 6708 6040 6565 6040 6554 C 6040 6550 6053 6532 6069 6515 C 6085 6499 6126 6439 6160 6383 L 6222 6281 L 6227 6182 C 6231 6122 6229 6070 6222 6052 C 6209 6013 6070 5801 6017 5738 C 5960 5670 5801 5534 5707 5471 C 5504 5338 5263 5271 5026 5283 C 4813 5293 4603 5373 4365 5534 C 4218 5633 4115 5734 4030 5862 L 3965 5960 L 3957 5897 C 3936 5737 3980 5456 4038 5371 C 4046 5360 4060 5370 4107 5420 C 4170 5489 4242 5540 4275 5540 C 4298 5540 4320 5523 4320 5503 C 4320 5486 4127 5292 4101 5282 L 4080 5274 L 4105 5224 C 4143 5148 4286 4982 4365 4923 C 4573 4768 4823 4680 5057 4680 C 5223 4680 5396 4717 5528 4780 C 5635 4831 5815 4955 5849 5000 C 5863 5019 5902 5067 5936 5105 C 5990 5167 6037 5238 6028 5244 C 6026 5245 6005 5252 5982 5260 C 5947 5271 5931 5285 5900 5329 C 5879 5360 5846 5401 5826 5419 C 5792 5452 5780 5483 5798 5494 C 5811 5501 5920 5454 5946 5429 C 5986 5392 6030 5315 6030 5285 C 6030 5247 6041 5259 6080 5338 C 6127 5434 6170 5644 6179 5820 C 6185 5944 6189 5970 6208 6000 C 6220 6019 6230 6030 6230 6025 C 6230 6019 6240 6010 6252 6005 C 6264 5999 6283 5982 6294 5967 C 6312 5942 6315 5921 6318 5802 C 6321 5692 6317 5645 6300 5560 C 6212 5129 5905 4752 5526 4610 C 5268 4512 5033 4497 4783 4561 C 4604 4606 4461 4674 4310 4783 C 4235 4837 4083 4993 4038 5061 C 3971 5162 3874 5363 3850 5450 C 3823 5551 3813 5744 3828 5890 C 3837 5978 3840 5986 3870 6013 C 3901 6041 3902 6041 3922 6023 C 3942 6005 3943 6006 3933 6025 C 3920 6051 3870 6245 3870 6270 C 3870 6286 3875 6289 3900 6284 C 3940 6275 3954 6289 3998 6379 C 4018 6420 4052 6471 4072 6493 L 4108 6532 L 4059 6641 C 4032 6701 4010 6754 4010 6759 C 4010 6764 4004 6772 3998 6777 C 3988 6785 3970 6766 3926 6707 z M 4516 5364 C 4543 5357 4545 5352 4528 5313 C 4518 5290 4416 5141 4366 5078 C 4350 5056 4307 5055 4286 5075 C 4265 5097 4276 5122 4363 5250 C 4439 5362 4457 5382 4478 5375 C 4486 5372 4503 5367 4516 5364 z M 5678 5318 C 5693 5301 5727 5262 5753 5232 C 5812 5166 5860 5092 5860 5068 C 5860 5053 5852 5050 5818 5050 C 5794 5050 5770 5054 5765 5058 C 5752 5067 5620 5236 5603 5264 C 5561 5336 5625 5382 5678 5318 z M 4808 5228 C 4823 5213 4823 5170 4809 5133 C 4803 5118 4785 5056 4769 4995 C 4727 4838 4723 4830 4689 4830 C 4674 4830 4649 4835 4635 4840 C 4609 4850 4608 4852 4615 4903 C 4619 4931 4631 4978 4642 5005 C 4653 5033 4673 5086 4686 5124 C 4718 5218 4734 5240 4768 5240 C 4784 5240 4801 5235 4808 5228 z M 5404 5221 C 5414 5210 5430 5171 5440 5133 C 5450 5096 5470 5034 5483 4995 C 5497 4957 5510 4907 5512 4885 L 5515 4845 L 5469 4842 C 5438 4840 5419 4844 5411 4853 C 5397 4871 5300 5164 5300 5191 C 5300 5210 5342 5239 5371 5240 C 5380 5240 5395 5231 5404 5221 z M 5106 5192 C 5118 5184 5131 4880 5122 4804 L 5117 4760 L 5065 4760 C 5016 4760 5012 4762 5007 4788 C 5001 4817 5008 5140 5016 5178 C 5020 5196 5027 5200 5058 5200 C 5078 5200 5100 5196 5106 5192 z M 3978 5018 C 4001 4995 3990 4963 3937 4904 C 3908 4872 3874 4831 3862 4813 C 3825 4761 3720 4753 3720 4803 C 3720 4843 3811 4943 3899 5001 C 3949 5033 3960 5036 3978 5018 z M 6189 5010 C 6221 4993 6360 4830 6360 4809 C 6360 4783 6324 4771 6283 4783 C 6250 4793 6158 4887 6132 4937 C 6101 4994 6137 5039 6189 5010 z M 4149 4860 C 4159 4855 4175 4839 4184 4825 C 4199 4803 4199 4797 4186 4772 C 4178 4757 4153 4727 4130 4705 C 4107 4683 4061 4630 4029 4588 C 3996 4545 3963 4510 3956 4510 C 3929 4510 3880 4532 3880 4545 C 3880 4552 3896 4580 3914 4606 C 3933 4633 3978 4699 4014 4752 C 4091 4866 4110 4881 4149 4860 z M 4436 4614 C 4455 4605 4470 4592 4470 4585 C 4470 4578 4455 4550 4437 4524 C 4419 4497 4375 4427 4340 4368 C 4284 4274 4272 4260 4249 4260 C 4234 4260 4212 4268 4200 4278 C 4182 4293 4179 4302 4184 4327 C 4194 4370 4314 4569 4350 4603 C 4385 4635 4391 4635 4436 4614 z M 5798 4533 C 5883 4407 5920 4338 5920 4302 C 5920 4274 5916 4270 5885 4264 C 5866 4261 5844 4260 5836 4263 C 5828 4266 5794 4315 5761 4372 C 5728 4429 5689 4490 5675 4509 C 5631 4570 5647 4619 5711 4620 C 5734 4620 5748 4606 5798 4533 z M 5431 4478 C 5451 4441 5560 4107 5560 4083 C 5560 4062 5556 4060 5500 4060 L 5441 4060 L 5416 4138 C 5403 4180 5375 4259 5356 4313 C 5302 4460 5309 4499 5387 4500 C 5410 4500 5423 4494 5431 4478 z M 4799 4481 C 4811 4474 4803 4438 4755 4278 C 4724 4172 4691 4077 4682 4068 C 4674 4058 4658 4050 4647 4050 C 4637 4050 4615 4058 4598 4068 C 4570 4084 4569 4087 4575 4133 C 4581 4185 4673 4454 4691 4476 C 4704 4492 4777 4495 4799 4481 z M 5108 4432 C 5123 4422 5137 4112 5126 4037 L 5119 3990 L 5066 3990 C 5019 3990 5012 3993 5006 4013 C 5003 4025 5003 4126 5007 4238 L 5013 4440 L 5054 4440 C 5077 4440 5101 4436 5108 4432 z" stroke-linecap="round" />
</g>
		<g transform="matrix(0.13 0 0 -0.13 1.59 -111.82)"  >
<path style="stroke: none; stroke-width: 1; stroke-dasharray: none; stroke-linecap: butt; stroke-dashoffset: 0; stroke-linejoin: miter; stroke-miterlimit: 4; fill: rgb(139,195,75); fill-rule: nonzero; opacity: 1;" vector-effect="non-scaling-stroke"  transform=" translate(-5063.61, -5940.6)" d="M 5926 6401 C 5785 6198 5425 6014 5130 5994 C 4823 5973 4461 6123 4250 6358 L 4186 6430 L 4174 6400 C 4167 6383 4148 6351 4132 6328 C 4101 6283 4077 6221 4065 6158 C 4059 6129 4064 6109 4088 6058 C 4132 5967 4171 5917 4300 5783 C 4433 5645 4534 5579 4723 5506 C 4872 5448 4946 5436 5117 5443 C 5239 5448 5269 5453 5375 5485 C 5441 5505 5526 5540 5565 5562 C 5712 5647 5860 5764 5860 5794 C 5860 5797 5841 5800 5818 5802 C 5779 5805 5772 5810 5732 5865 C 5662 5962 5590 6072 5590 6081 C 5590 6086 5606 6098 5626 6107 C 5658 6123 5664 6123 5688 6110 C 5718 6093 5791 5990 5846 5886 L 5882 5818 L 5906 5846 C 6029 5992 6081 6121 6060 6228 C 6044 6315 5985 6440 5961 6440 C 5956 6440 5941 6422 5926 6401 z M 4501 6109 C 4567 6087 4567 6079 4506 6009 C 4475 5974 4432 5917 4410 5883 C 4388 5850 4363 5819 4355 5816 C 4330 5807 4280 5830 4280 5852 C 4280 5873 4325 5961 4363 6013 C 4451 6134 4442 6128 4501 6109 z M 5412 5953 C 5421 5943 5431 5919 5435 5900 C 5439 5881 5460 5812 5481 5748 C 5502 5684 5520 5622 5520 5612 C 5520 5591 5495 5580 5443 5580 C 5414 5580 5410 5584 5392 5633 C 5360 5717 5310 5896 5310 5923 C 5310 5967 5381 5988 5412 5953 z M 4803 5951 C 4826 5942 4827 5938 4820 5893 C 4809 5827 4762 5644 4745 5604 L 4732 5572 L 4683 5584 C 4639 5595 4635 5599 4632 5629 C 4628 5673 4708 5908 4737 5938 C 4762 5963 4768 5964 4803 5951 z M 5124 5833 C 5132 5737 5132 5552 5124 5522 C 5118 5501 5112 5499 5066 5502 L 5015 5505 L 5012 5615 C 5010 5676 5012 5767 5015 5818 L 5022 5910 L 5069 5910 L 5117 5910 L 5124 5833 z" stroke-linecap="round" />
</g>
		<g transform="matrix(0.13 0 0 -0.13 5.2 168.43)"  >
<path style="stroke: none; stroke-width: 1; stroke-dasharray: none; stroke-linecap: butt; stroke-dashoffset: 0; stroke-linejoin: miter; stroke-miterlimit: 4; fill: rgb(139,195,75); fill-rule: nonzero; opacity: 1;" vector-effect="non-scaling-stroke"  transform=" translate(-5090.66, -3838.71)" d="M 6348 4350 C 6322 4334 6264 4282 6218 4234 C 5978 3985 5660 3814 5324 3756 C 5221 3738 4989 3735 4873 3750 C 4716 3771 4579 3817 4379 3916 C 4158 4025 4042 4104 3885 4254 C 3825 4311 3771 4356 3766 4353 C 3761 4350 3760 4314 3763 4274 C 3768 4212 3775 4188 3811 4124 C 3834 4082 3865 4033 3879 4016 C 3894 3999 3940 3940 3980 3885 C 4064 3773 4192 3639 4260 3593 C 4332 3545 4648 3385 4730 3356 C 4846 3314 4935 3298 5055 3299 C 5179 3299 5281 3317 5408 3361 C 5589 3425 5758 3518 5908 3638 C 6003 3713 6234 3990 6282 4085 C 6294 4107 6316 4144 6332 4168 C 6369 4222 6420 4333 6420 4360 C 6420 4387 6404 4385 6348 4350 z M 4517 3772 C 4526 3766 4523 3747 4505 3696 C 4474 3609 4457 3590 4408 3590 C 4375 3590 4370 3593 4370 3613 C 4370 3639 4414 3737 4437 3762 C 4454 3780 4496 3786 4517 3772 z M 5713 3748 C 5749 3700 5770 3655 5770 3625 C 5770 3602 5767 3600 5725 3600 C 5685 3600 5677 3604 5661 3631 C 5637 3671 5616 3745 5623 3765 C 5634 3793 5686 3783 5713 3748 z M 4784 3687 C 4800 3675 4799 3668 4774 3561 L 4748 3448 L 4702 3454 C 4677 3457 4655 3462 4652 3465 C 4646 3470 4677 3641 4690 3675 C 4698 3695 4706 3700 4733 3700 C 4751 3700 4774 3694 4784 3687 z M 5447 3657 C 5461 3614 5478 3489 5472 3472 C 5466 3453 5373 3457 5366 3476 C 5359 3493 5330 3666 5330 3688 C 5330 3697 5344 3700 5383 3698 C 5434 3695 5435 3694 5447 3657 z M 5114 3654 C 5117 3645 5120 3582 5120 3514 L 5120 3389 L 5068 3392 L 5015 3395 L 5012 3450 C 5010 3480 5011 3542 5015 3588 L 5022 3670 L 5065 3670 C 5095 3670 5110 3665 5114 3654 z" stroke-linecap="round" />
</g>
		<g transform="matrix(0.13 0 0 -0.13 -92.73 -371.9)"  >
<path style="stroke: none; stroke-width: 1; stroke-dasharray: none; stroke-linecap: butt; stroke-dashoffset: 0; stroke-linejoin: miter; stroke-miterlimit: 4; fill: rgb(139,195,75); fill-rule: nonzero; opacity: 1;" vector-effect="non-scaling-stroke"  transform=" translate(-4356.16, -7891.22)" d="M 4267 8206 C 4094 8134 4013 8004 4022 7811 C 4029 7654 4101 7569 4237 7554 C 4368 7540 4487 7585 4586 7686 C 4665 7765 4691 7830 4691 7943 C 4691 8071 4642 8146 4525 8201 C 4446 8239 4352 8241 4267 8206 z M 4430 8085 C 4471 8064 4490 8032 4490 7985 C 4490 7952 4484 7938 4458 7913 C 4417 7875 4386 7868 4324 7879 C 4206 7901 4199 8029 4313 8080 C 4364 8104 4392 8105 4430 8085 z" stroke-linecap="round" />
</g>
		<g transform="matrix(0.13 0 0 -0.13 98.75 -371.63)"  >
<path style="stroke: none; stroke-width: 1; stroke-dasharray: none; stroke-linecap: butt; stroke-dashoffset: 0; stroke-linejoin: miter; stroke-miterlimit: 4; fill: rgb(139,195,75); fill-rule: nonzero; opacity: 1;" vector-effect="non-scaling-stroke"  transform=" translate(-5792.28, -7889.18)" d="M 5641 8208 C 5576 8183 5513 8124 5479 8055 C 5459 8013 5455 7990 5455 7915 C 5455 7835 5459 7818 5485 7765 C 5522 7691 5598 7612 5665 7580 C 5762 7532 5961 7543 6033 7601 C 6131 7677 6160 7871 6094 8003 C 6038 8114 5967 8175 5852 8210 C 5771 8235 5710 8235 5641 8208 z M 5859 8075 C 5905 8052 5940 8003 5940 7964 C 5940 7897 5872 7860 5776 7874 C 5633 7896 5642 8090 5786 8090 C 5811 8090 5844 8083 5859 8075 z" stroke-linecap="round" />
</g>
		<g transform="matrix(0.13 0 0 -0.13 380.12 25.93)"  >
<path style="stroke: none; stroke-width: 1; stroke-dasharray: none; stroke-linecap: butt; stroke-dashoffset: 0; stroke-linejoin: miter; stroke-miterlimit: 4; fill: rgb(139,195,75); fill-rule: nonzero; opacity: 1;" vector-effect="non-scaling-stroke"  transform=" translate(-7902.53, -4907.5)" d="M 7536 5405 C 7508 5309 7464 5226 7418 5184 L 7375 5144 L 7378 4925 C 7381 4684 7382 4681 7446 4680 C 7495 4680 7508 4705 7525 4825 C 7534 4885 7543 4936 7545 4939 C 7548 4941 7575 4918 7605 4888 L 7660 4833 L 7660 4734 C 7660 4680 7665 4581 7670 4515 C 7680 4406 7683 4393 7706 4373 C 7720 4360 7742 4350 7755 4350 C 7794 4350 7812 4389 7817 4487 C 7822 4590 7827 4620 7839 4620 C 7844 4620 7874 4597 7905 4569 L 7961 4517 L 7993 4540 C 8085 4608 8190 4704 8188 4719 C 8185 4733 8200 4736 8288 4740 C 8382 4745 8394 4747 8411 4769 C 8438 4802 8436 4846 8407 4865 C 8371 4888 8232 4902 8158 4890 C 8123 4885 8088 4880 8079 4880 C 8070 4880 8040 4910 8012 4948 C 7985 4985 7948 5028 7931 5044 C 7914 5061 7900 5080 7900 5087 C 7900 5109 7959 5129 8079 5149 C 8202 5169 8220 5180 8220 5231 C 8220 5272 8187 5290 8114 5290 C 8047 5290 7903 5267 7826 5245 C 7757 5224 7755 5225 7721 5273 C 7705 5296 7660 5349 7622 5390 L 7553 5465 L 7536 5405 z" stroke-linecap="round" />
</g>
		<g transform="matrix(0.13 0 0 -0.13 -376.29 27.55)"  >
<path style="stroke: none; stroke-width: 1; stroke-dasharray: none; stroke-linecap: butt; stroke-dashoffset: 0; stroke-linejoin: miter; stroke-miterlimit: 4; fill: rgb(139,195,75); fill-rule: nonzero; opacity: 1;" vector-effect="non-scaling-stroke"  transform=" translate(-2229.49, -4895.36)" d="M 2462 5335 C 2415 5277 2371 5230 2362 5230 C 2352 5230 2305 5241 2256 5255 C 2122 5292 2038 5297 1966 5271 C 1934 5260 1906 5249 1904 5247 C 1895 5239 1923 5179 1940 5170 C 1949 5165 2002 5154 2056 5146 C 2179 5127 2230 5113 2236 5095 C 2241 5084 2204 5031 2113 4916 L 2091 4888 L 1928 4887 C 1793 4885 1759 4882 1733 4867 C 1706 4853 1700 4843 1700 4816 C 1700 4757 1726 4745 1846 4748 C 1938 4750 1950 4748 1959 4732 C 1974 4704 2116 4568 2153 4546 L 2185 4527 L 2227 4570 C 2250 4593 2275 4610 2282 4608 C 2291 4605 2297 4569 2301 4495 C 2307 4399 2310 4384 2330 4368 C 2357 4346 2403 4345 2424 4365 C 2453 4395 2461 4459 2459 4644 L 2457 4825 L 2507 4879 C 2535 4908 2562 4930 2568 4927 C 2573 4923 2583 4886 2590 4843 C 2603 4759 2629 4696 2655 4686 C 2686 4675 2717 4680 2735 4700 C 2762 4730 2757 4902 2724 5058 C 2719 5084 2722 5098 2739 5120 C 2764 5155 2765 5160 2745 5160 C 2724 5160 2646 5268 2599 5363 C 2577 5405 2556 5440 2552 5440 C 2548 5439 2507 5392 2462 5335 z" stroke-linecap="round" />
</g>
		<g transform="matrix(0.13 0 0 -0.13 -467.35 126.26)"  >
<path style="stroke: none; stroke-width: 1; stroke-dasharray: none; stroke-linecap: butt; stroke-dashoffset: 0; stroke-linejoin: miter; stroke-miterlimit: 4; fill: rgb(139,195,75); fill-rule: nonzero; opacity: 1;" vector-effect="non-scaling-stroke"  transform=" translate(-1546.54, -4155)" d="M 1873 4513 C 1805 4419 1681 4301 1588 4240 C 1540 4208 1503 4180 1506 4177 C 1509 4174 1499 4163 1483 4153 C 1434 4119 1166 3984 1113 3966 C 1050 3945 1017 3920 1000 3881 C 976 3822 1028 3740 1089 3740 C 1104 3740 1147 3759 1185 3783 C 1224 3807 1336 3868 1435 3918 C 1575 3989 1641 4030 1730 4100 C 1833 4181 2097 4417 2099 4430 C 2100 4433 2087 4444 2071 4453 C 2054 4463 2017 4493 1987 4520 C 1957 4548 1928 4570 1923 4570 C 1918 4570 1896 4544 1873 4513 z" stroke-linecap="round" />
</g>
		<g transform="matrix(0.13 0 0 -0.13 470.73 126.26)"  >
<path style="stroke: none; stroke-width: 1; stroke-dasharray: none; stroke-linecap: butt; stroke-dashoffset: 0; stroke-linejoin: miter; stroke-miterlimit: 4; fill: rgb(139,195,75); fill-rule: nonzero; opacity: 1;" vector-effect="non-scaling-stroke"  transform=" translate(-8582.15, -4155)" d="M 8185 4533 C 8158 4512 8118 4478 8096 4458 L 8055 4421 L 8248 4230 C 8354 4126 8462 4028 8488 4013 C 8514 3998 8555 3972 8580 3954 C 8664 3896 8981 3740 9017 3740 C 9053 3740 9085 3765 9100 3806 C 9128 3879 9095 3920 8970 3969 C 8866 4010 8681 4118 8668 4145 C 8663 4156 8626 4187 8585 4213 C 8497 4269 8414 4351 8313 4478 C 8272 4528 8238 4570 8236 4570 C 8234 4570 8211 4553 8185 4533 z" stroke-linecap="round" />
</g>
		<g transform="matrix(0.13 0 0 -0.13 -292.15 209.2)"  >
<path style="stroke: none; stroke-width: 1; stroke-dasharray: none; stroke-linecap: butt; stroke-dashoffset: 0; stroke-linejoin: miter; stroke-miterlimit: 4; fill: rgb(139,195,75); fill-rule: nonzero; opacity: 1;" vector-effect="non-scaling-stroke"  transform=" translate(-2860.57, -3532.93)" d="M 2689 4123 C 2688 4118 2689 4056 2690 3984 L 2692 3852 L 2658 3841 C 2606 3824 2476 3735 2404 3668 C 2330 3598 2323 3570 2368 3527 C 2404 3492 2420 3493 2456 3531 C 2499 3577 2657 3680 2685 3680 C 2688 3680 2690 3615 2690 3536 L 2690 3393 L 2631 3356 C 2550 3307 2422 3202 2372 3145 C 2329 3096 2321 3067 2343 3040 C 2357 3022 2401 2990 2411 2990 C 2415 2990 2453 3025 2497 3068 C 2540 3110 2598 3160 2625 3178 C 2683 3217 2678 3228 2682 3057 C 2684 2993 2688 2940 2693 2940 C 2697 2940 2771 2940 2859 2940 L 3018 2940 L 3025 3070 L 3032 3199 L 3060 3185 C 3075 3177 3125 3130 3170 3080 C 3263 2979 3283 2971 3331 3019 C 3347 3035 3360 3053 3360 3059 C 3360 3076 3184 3275 3111 3340 L 3045 3400 L 3052 3497 C 3056 3551 3056 3610 3053 3628 C 3049 3653 3051 3660 3065 3660 C 3089 3660 3156 3611 3227 3541 C 3263 3506 3299 3480 3311 3480 C 3335 3480 3390 3531 3390 3554 C 3390 3577 3302 3671 3160 3799 C 3146 3811 3120 3831 3102 3842 L 3069 3862 L 3076 3931 L 3083 4000 L 3054 4000 C 3009 4000 2886 4037 2812 4072 C 2696 4128 2690 4130 2689 4123 z" stroke-linecap="round" />
</g>
		<g transform="matrix(0.13 0 0 -0.13 298.41 208.93)"  >
<path style="stroke: none; stroke-width: 1; stroke-dasharray: none; stroke-linecap: butt; stroke-dashoffset: 0; stroke-linejoin: miter; stroke-miterlimit: 4; fill: rgb(139,195,75); fill-rule: nonzero; opacity: 1;" vector-effect="non-scaling-stroke"  transform=" translate(-7289.71, -3535)" d="M 7365 4088 C 7254 4031 7187 4010 7119 4010 L 7061 4010 L 7067 3932 C 7073 3855 7072 3854 7045 3836 C 7013 3815 6924 3736 6828 3642 C 6748 3565 6741 3538 6791 3496 C 6808 3482 6828 3470 6835 3470 C 6843 3470 6897 3515 6956 3570 C 7015 3625 7069 3670 7075 3670 C 7083 3670 7089 3636 7094 3568 C 7098 3511 7103 3451 7106 3434 C 7111 3405 7106 3396 7033 3329 C 6908 3211 6822 3118 6804 3081 L 6787 3046 L 6824 3013 C 6843 2995 6868 2980 6879 2980 C 6891 2980 6918 3005 6950 3044 C 7000 3108 7095 3200 7110 3200 C 7117 3200 7130 3070 7130 2988 L 7130 2940 L 7295 2940 C 7386 2940 7463 2941 7468 2943 C 7472 2944 7474 3005 7474 3078 C 7473 3196 7474 3210 7490 3210 C 7509 3210 7618 3138 7638 3112 C 7645 3103 7671 3074 7697 3047 C 7733 3010 7747 3001 7764 3006 C 7798 3016 7820 3041 7820 3071 C 7820 3123 7705 3246 7563 3344 L 7475 3406 L 7472 3543 C 7470 3665 7471 3680 7486 3680 C 7513 3680 7600 3626 7669 3566 C 7740 3505 7765 3498 7798 3533 C 7836 3573 7827 3601 7755 3671 C 7684 3740 7554 3833 7504 3850 C 7473 3861 7473 3861 7466 3952 C 7463 4002 7460 4063 7460 4087 C 7460 4110 7457 4130 7453 4130 C 7448 4129 7409 4111 7365 4088 z" stroke-linecap="round" />
</g>
		<g transform="matrix(0.13 0 0 -0.13 -292.5 402.7)"  >
<path style="stroke: none; stroke-width: 1; stroke-dasharray: none; stroke-linecap: butt; stroke-dashoffset: 0; stroke-linejoin: miter; stroke-miterlimit: 4; fill: rgb(139,195,75); fill-rule: nonzero; opacity: 1;" vector-effect="non-scaling-stroke"  transform=" translate(-2857.9, -2081.68)" d="M 2920 2823 C 2895 2822 2838 2818 2794 2814 L 2712 2808 L 2705 2472 C 2698 2137 2698 2135 2674 2103 C 2641 2059 2555 1884 2513 1775 C 2453 1620 2466 1472 2549 1378 C 2586 1337 2590 1335 2643 1335 C 2705 1335 2740 1357 2740 1396 C 2740 1409 2726 1446 2710 1477 C 2674 1546 2661 1638 2680 1695 C 2687 1716 2721 1793 2756 1867 C 2791 1940 2820 2005 2820 2011 C 2820 2017 2837 2039 2859 2060 C 2903 2104 2897 2064 2921 2478 C 2928 2596 2938 2680 2943 2680 C 2949 2680 2987 2649 3029 2612 C 3140 2512 3165 2502 3214 2541 C 3231 2554 3240 2571 3240 2589 C 3240 2639 3017 2838 2973 2828 C 2969 2827 2945 2825 2920 2823 z" stroke-linecap="round" />
</g>
		<g transform="matrix(0.13 0 0 -0.13 297.69 403.45)"  >
<path style="stroke: none; stroke-width: 1; stroke-dasharray: none; stroke-linecap: butt; stroke-dashoffset: 0; stroke-linejoin: miter; stroke-miterlimit: 4; fill: rgb(139,195,75); fill-rule: nonzero; opacity: 1;" vector-effect="non-scaling-stroke"  transform=" translate(-7284.32, -2076.07)" d="M 7122 2810 C 7110 2805 7059 2762 7010 2714 C 6933 2639 6920 2623 6920 2594 C 6920 2571 6927 2556 6946 2541 C 6997 2501 7012 2508 7175 2653 C 7217 2689 7218 2690 7224 2668 C 7227 2655 7230 2598 7230 2540 C 7231 2482 7237 2357 7244 2261 L 7257 2087 L 7288 2061 C 7310 2042 7333 2000 7369 1909 C 7476 1643 7480 1613 7425 1493 C 7406 1451 7390 1410 7390 1400 C 7390 1344 7510 1309 7563 1350 C 7599 1379 7626 1432 7639 1505 C 7666 1648 7641 1748 7503 2055 L 7449 2175 L 7447 2497 L 7445 2820 L 7295 2819 C 7213 2819 7135 2815 7122 2810 z" stroke-linecap="round" />
</g>
</g>
</g>
<g transform="matrix(NaN NaN NaN NaN 0 0)"  >
<g style=""   >
</g>
</g>
<g transform="matrix(NaN NaN NaN NaN 0 0)"  >
<g style=""   >
</g>
</g>
<g transform="matrix(NaN NaN NaN NaN 0 0)"  >
<g style=""   >
</g>
</g>
<g transform="matrix(NaN NaN NaN NaN 0 0)"  >
<g style=""   >
</g>
</g>
</svg>