<svg xmlns="http://www.w3.org/2000/svg" version="1.0" width="300.000000pt" height="300.000000pt" viewBox="0 0 300.000000 300.000000" preserveAspectRatio="xMidYMid meet">
<metadata fill="#8bc34b">
Created by potrace 1.10, written by Peter Selinger 2001-2011
</metadata>
<g transform="translate(0.000000,300.000000) scale(0.100000,-0.100000)" fill="#8bc34b" stroke="none">
<path d="M1211 2661 c-19 -19 -41 -79 -41 -111 0 -41 26 -97 64 -139 77 -85 76 -75 11 -133 -77 -69 -105 -129 -105 -225 0 -40 -4 -73 -9 -73 -4 0 -24 -11 -44 -24 l-36 -25 -60 62 -61 62 0 99 0 98 91 99 c78 84 90 103 85 124 -8 31 -49 59 -74 51 -10 -4 -64 -53 -120 -110 l-102 -103 0 -159 0 -159 72 -72 71 -72 -40 -48 c-22 -26 -54 -69 -71 -96 l-30 -47 -55 60 c-56 60 -56 60 -113 60 l-58 0 -97 95 c-53 52 -104 95 -113 95 -24 0 -66 -45 -66 -71 0 -15 38 -60 112 -136 l112 -113 55 0 c54 0 57 -2 113 -57 48 -48 55 -59 47 -75 -6 -11 -16 -47 -23 -80 l-12 -60 -123 -51 c-98 -40 -125 -56 -137 -78 -11 -22 -14 -75 -14 -241 0 -244 4 -261 62 -266 63 -5 68 11 68 241 l0 198 46 19 c25 11 57 23 70 26 23 6 24 4 24 -40 0 -50 26 -179 42 -210 8 -15 3 -26 -27 -56 l-37 -38 0 -151 0 -152 132 -139 c162 -171 194 -200 225 -200 25 0 65 42 65 68 0 8 -67 83 -150 167 l-150 152 1 99 c0 96 1 98 17 74 125 -183 256 -283 442 -341 95 -30 260 -32 360 -5 93 25 199 78 271 136 71 57 153 149 177 198 9 17 19 32 24 32 4 0 8 -42 8 -92 l0 -93 -150 -157 c-83 -87 -150 -164 -150 -171 0 -8 9 -26 21 -41 39 -50 56 -40 234 142 l164 167 1 152 0 153 -36 39 c-28 31 -33 44 -26 58 16 30 42 159 42 207 0 26 4 46 8 46 5 0 35 -11 68 -24 l59 -24 5 -211 c5 -229 6 -231 61 -231 56 0 59 14 59 271 0 173 -3 240 -12 252 -7 9 -67 39 -132 66 l-120 49 -12 60 c-7 33 -17 69 -23 80 -9 18 -3 28 47 76 54 53 60 56 109 56 62 0 75 10 199 146 69 77 84 99 79 117 -8 26 -41 57 -63 57 -8 0 -58 -43 -111 -95 l-97 -95 -61 0 -62 0 -51 -59 -52 -60 -41 59 c-23 32 -55 75 -71 95 l-29 36 72 73 71 74 0 158 0 158 -108 108 c-59 59 -116 108 -125 108 -24 0 -67 -44 -67 -69 0 -12 38 -60 90 -114 l90 -95 0 -98 -1 -99 -59 -62 -59 -63 -37 25 c-20 14 -40 25 -45 25 -4 0 -8 30 -7 68 1 101 -45 194 -123 248 -21 14 -39 30 -39 33 0 4 23 32 50 63 81 91 97 154 61 235 -20 43 -47 59 -81 48 -25 -8 -35 -46 -21 -73 26 -48 12 -88 -56 -164 -18 -21 -35 -48 -38 -61 -6 -21 -11 -23 -71 -21 -59 1 -67 4 -78 26 -7 14 -34 50 -60 82 -48 60 -56 92 -34 141 26 58 -36 101 -81 56z m33 -84 c-5 -31 -1 -53 11 -76 21 -42 130 -177 147 -183 18 -7 116 0 132 9 7 4 42 46 77 93 61 81 64 87 64 142 0 64 14 72 28 18 12 -48 -5 -94 -64 -165 -27 -33 -49 -70 -49 -82 0 -12 16 -38 35 -57 19 -20 35 -38 35 -42 0 -3 -9 -19 -21 -35 -36 -50 7 -108 71 -94 l30 7 0 -61 c0 -34 -2 -61 -4 -61 -2 0 -28 11 -59 25 -82 38 -197 52 -302 37 -48 -7 -109 -22 -136 -32 -27 -11 -52 -20 -54 -20 -3 0 -5 16 -5 35 0 39 -1 39 35 25 30 -11 60 0 87 34 27 32 22 70 -12 104 -16 17 -30 32 -30 35 0 2 16 20 35 40 45 47 45 73 -4 128 -21 24 -45 58 -55 76 -16 32 -22 123 -9 136 16 17 22 4 17 -36z m-184 -112 c0 -8 -36 -54 -79 -100 l-80 -86 -3 -92 c-5 -143 -3 -148 65 -222 56 -62 59 -67 43 -83 -16 -16 -21 -13 -77 46 -32 35 -64 72 -69 82 -6 10 -10 78 -10 150 l0 131 66 72 c87 94 112 117 130 117 8 0 14 -7 14 -15z m918 -79 l92 -93 0 -135 c0 -150 5 -136 -84 -233 -60 -65 -60 -84 7 -170 108 -142 110 -143 189 -67 40 38 55 46 90 48 24 1 51 2 61 3 10 1 59 42 108 92 49 50 95 89 101 87 30 -10 13 -37 -79 -129 -94 -94 -101 -99 -142 -99 -23 0 -55 -7 -70 -15 -39 -19 -121 -113 -121 -136 0 -43 41 -165 62 -185 13 -12 64 -39 113 -60 137 -57 126 -32 123 -283 -3 -196 -5 -216 -20 -219 -17 -3 -18 11 -18 188 l0 192 -33 33 c-56 56 -154 71 -172 28 -4 -10 -13 -52 -20 -93 -7 -41 -18 -101 -25 -133 -13 -58 -13 -58 18 -103 l32 -45 0 -133 0 -133 -146 -152 c-135 -139 -171 -166 -181 -136 -1 6 56 72 128 148 72 76 136 153 144 170 15 38 11 183 -6 203 -27 33 -52 17 -126 -77 -65 -82 -119 -130 -203 -179 -197 -116 -439 -126 -635 -27 -105 53 -217 148 -220 186 -1 11 -20 46 -43 77 -102 137 -147 292 -139 474 3 63 12 142 21 175 23 87 99 231 156 298 217 254 507 331 770 206 76 -36 138 -59 161 -59 21 0 102 72 128 114 18 28 21 50 21 142 0 125 1 123 -97 226 -62 65 -70 78 -56 91 12 13 19 7 111 -87z m-716 -208 c24 -20 28 -44 12 -67 -18 -25 -41 -27 -66 -4 -22 20 -23 41 -1 65 19 21 33 23 55 6z m448 -4 c11 -12 11 -18 -2 -30 -18 -18 -48 -8 -48 15 0 33 28 42 50 15z m-1234 -344 c50 -49 99 -91 108 -91 9 -1 21 -3 26 -4 6 -1 25 -3 44 -4 26 -1 49 -14 94 -53 55 -47 59 -53 49 -75 -14 -31 -20 -29 -63 15 -56 55 -85 72 -129 72 -52 1 -65 9 -164 112 -56 58 -82 92 -78 102 4 9 10 16 14 16 4 0 48 -40 99 -90z m242 -532 c-2 -23 -8 -32 -23 -33 -45 -4 -109 -30 -136 -56 l-29 -27 0 -182 c0 -173 -8 -229 -31 -215 -5 4 -9 97 -9 224 0 189 2 220 16 232 18 16 182 87 202 88 9 1 12 -9 10 -31z m90 -412 c13 -25 12 -30 -9 -52 -17 -19 -23 -38 -26 -96 -7 -102 7 -133 107 -235 125 -129 180 -191 180 -203 0 -33 -52 7 -183 138 l-147 149 0 137 c0 124 2 141 21 167 24 35 39 33 57 -5z" fill="#8bc34b"/>
<path d="M1615 1947 c39 -13 94 -36 123 -51 62 -31 81 -26 37 10 -37 29 -102 51 -175 59 l-55 6 70 -24z" fill="#8bc34b"/>
<path d="M1508 1293 c2 -582 1 -638 -14 -655 -20 -22 -47 -23 -63 -4 -9 11 -12 176 -11 650 1 730 13 655 -104 612 -96 -35 -171 -82 -245 -157 -234 -235 -277 -606 -103 -886 78 -127 133 -171 71 -57 -65 119 -98 190 -113 249 -65 257 9 521 191 685 65 58 167 118 219 130 l34 8 0 -68 0 -68 -37 5 c-50 6 -140 -39 -168 -84 -11 -18 -25 -32 -32 -33 -41 -1 -127 -120 -125 -173 0 -20 -7 -41 -21 -55 -19 -21 -22 -37 -25 -131 -4 -108 -4 -108 26 -143 23 -25 28 -38 21 -50 -20 -35 77 -178 120 -178 9 0 23 -13 33 -29 9 -16 40 -44 70 -61 43 -25 61 -30 96 -27 l42 5 0 -42 c0 -87 27 -138 81 -151 21 -5 34 0 59 22 29 26 33 36 37 100 l5 70 42 -4 c51 -5 131 37 161 84 11 18 28 32 37 33 43 1 133 133 121 178 -4 16 2 31 18 48 22 24 24 33 24 139 0 104 -2 115 -22 137 -15 16 -23 37 -23 59 0 57 -83 169 -126 169 -7 0 -16 9 -19 20 -15 48 -147 112 -190 92 l-25 -12 0 79 c0 53 4 81 12 83 7 3 46 -2 88 -9 151 -27 161 -26 76 12 -53 23 -147 45 -195 45 l-26 0 3 -637z m-148 311 c10 -54 17 -99 16 -100 -1 0 -13 -8 -28 -17 -15 -9 -29 -17 -31 -17 -4 0 -118 137 -130 157 -8 12 128 86 147 80 5 -2 17 -48 26 -103z m272 87 c24 -10 58 -27 76 -38 l33 -20 -67 -82 c-36 -45 -69 -81 -72 -79 -4 2 -19 9 -33 17 l-26 13 13 66 c6 37 15 84 18 105 4 20 9 37 11 37 2 0 23 -8 47 -19z m-432 -181 l71 -79 -21 -29 -21 -29 -95 36 c-52 20 -94 40 -94 46 0 8 81 135 86 135 1 0 34 -36 74 -80z m673 -38 c5 -12 8 -24 6 -25 -2 -2 -45 -20 -96 -39 l-91 -35 -22 29 -21 29 72 80 72 80 34 -48 c19 -26 40 -58 46 -71z m-503 -216 l0 -193 -25 5 c-14 2 -35 18 -47 36 -12 17 -29 38 -38 47 -13 13 -16 34 -14 102 2 82 4 90 37 136 21 28 46 51 59 54 13 2 24 5 26 6 1 0 2 -86 2 -193z m258 145 c15 -20 32 -39 37 -43 6 -4 12 -45 13 -92 2 -85 2 -86 -35 -136 -20 -27 -49 -54 -65 -59 l-28 -10 0 188 c0 103 3 190 6 193 12 13 47 -7 72 -41z m-507 -51 l86 -22 0 -73 0 -72 -95 -27 c-52 -15 -97 -24 -100 -21 -10 10 -21 120 -16 160 9 71 15 87 27 82 7 -2 51 -14 98 -27z m794 8 c6 -29 9 -111 7 -163 -4 -68 -7 -69 -113 -39 l-95 26 0 74 0 73 81 21 c44 12 85 23 90 25 20 7 25 5 30 -17z m-645 -278 c0 -3 -33 -41 -73 -84 l-73 -80 -42 63 c-23 35 -42 68 -42 75 0 6 42 28 93 47 l92 37 22 -27 c13 -14 23 -28 23 -31z m525 18 c33 -14 68 -28 78 -31 15 -6 14 -11 -13 -54 -16 -26 -38 -58 -48 -71 l-18 -23 -72 80 -73 81 22 29 c24 32 16 33 124 -11z m-446 -73 l28 -14 -13 -73 c-7 -40 -13 -88 -13 -105 -1 -42 -11 -42 -100 3 -50 25 -69 39 -63 47 43 57 125 157 129 157 2 0 17 -7 32 -15z m326 -66 c64 -79 65 -82 45 -96 -31 -22 -131 -66 -136 -60 -6 5 -34 172 -34 198 0 14 31 36 52 38 4 1 37 -36 73 -80z" fill="#8bc34b"/>
<path d="M811 1100 c-2 -66 52 -204 117 -302 23 -36 107 -97 118 -86 2 3 -18 30 -46 62 -91 104 -149 203 -175 299 -8 32 -14 42 -14 27z" fill="#8bc34b"/>
</g>
</svg>